<svg id="visual" viewBox="0 0 900 600" width="900" height="600" xmlns="http://www.w3.org/2000/svg" xmlns:xlink="http://www.w3.org/1999/xlink" version="1.1"><rect x="0" y="0" width="900" height="600" fill="#FFFFFF"></rect><defs><linearGradient id="grad1_0" x1="33.3%" y1="0%" x2="100%" y2="100%"><stop offset="20%" stop-color="#ffc0cb" stop-opacity="1"></stop><stop offset="80%" stop-color="#ffc0cb" stop-opacity="1"></stop></linearGradient></defs><defs><linearGradient id="grad1_1" x1="33.3%" y1="0%" x2="100%" y2="100%"><stop offset="20%" stop-color="#ffc0cb" stop-opacity="1"></stop><stop offset="80%" stop-color="#ffcdd5" stop-opacity="1"></stop></linearGradient></defs><defs><linearGradient id="grad1_2" x1="33.3%" y1="0%" x2="100%" y2="100%"><stop offset="20%" stop-color="#ffd9e0" stop-opacity="1"></stop><stop offset="80%" stop-color="#ffcdd5" stop-opacity="1"></stop></linearGradient></defs><defs><linearGradient id="grad1_3" x1="33.3%" y1="0%" x2="100%" y2="100%"><stop offset="20%" stop-color="#ffd9e0" stop-opacity="1"></stop><stop offset="80%" stop-color="#ffe6ea" stop-opacity="1"></stop></linearGradient></defs><defs><linearGradient id="grad1_4" x1="33.3%" y1="0%" x2="100%" y2="100%"><stop offset="20%" stop-color="#fff2f4" stop-opacity="1"></stop><stop offset="80%" stop-color="#ffe6ea" stop-opacity="1"></stop></linearGradient></defs><defs><linearGradient id="grad1_5" x1="33.3%" y1="0%" x2="100%" y2="100%"><stop offset="20%" stop-color="#fff2f4" stop-opacity="1"></stop><stop offset="80%" stop-color="#ffffff" stop-opacity="1"></stop></linearGradient></defs><defs><linearGradient id="grad2_0" x1="0%" y1="0%" x2="66.7%" y2="100%"><stop offset="20%" stop-color="#ffc0cb" stop-opacity="1"></stop><stop offset="80%" stop-color="#ffc0cb" stop-opacity="1"></stop></linearGradient></defs><defs><linearGradient id="grad2_1" x1="0%" y1="0%" x2="66.7%" y2="100%"><stop offset="20%" stop-color="#ffcdd5" stop-opacity="1"></stop><stop offset="80%" stop-color="#ffc0cb" stop-opacity="1"></stop></linearGradient></defs><defs><linearGradient id="grad2_2" x1="0%" y1="0%" x2="66.7%" y2="100%"><stop offset="20%" stop-color="#ffcdd5" stop-opacity="1"></stop><stop offset="80%" stop-color="#ffd9e0" stop-opacity="1"></stop></linearGradient></defs><defs><linearGradient id="grad2_3" x1="0%" y1="0%" x2="66.7%" y2="100%"><stop offset="20%" stop-color="#ffe6ea" stop-opacity="1"></stop><stop offset="80%" stop-color="#ffd9e0" stop-opacity="1"></stop></linearGradient></defs><defs><linearGradient id="grad2_4" x1="0%" y1="0%" x2="66.7%" y2="100%"><stop offset="20%" stop-color="#ffe6ea" stop-opacity="1"></stop><stop offset="80%" stop-color="#fff2f4" stop-opacity="1"></stop></linearGradient></defs><defs><linearGradient id="grad2_5" x1="0%" y1="0%" x2="66.7%" y2="100%"><stop offset="20%" stop-color="#ffffff" stop-opacity="1"></stop><stop offset="80%" stop-color="#fff2f4" stop-opacity="1"></stop></linearGradient></defs><g transform="translate(900, 0)"><path d="M0 486.7C-63.9 480.7 -127.7 474.6 -186.3 449.7C-244.8 424.7 -298 380.9 -329.5 329.5C-361.1 278.1 -371 219.2 -393.6 163C-416.2 106.8 -451.5 53.4 -486.7 0L0 0Z" fill="#fff9fa"></path><path d="M0 405.6C-53.2 400.6 -106.5 395.5 -155.2 374.7C-204 354 -248.3 317.4 -274.6 274.6C-300.9 231.8 -309.1 182.7 -328 135.9C-346.8 89 -376.2 44.5 -405.6 0L0 0Z" fill="#ffecef"></path><path d="M0 324.5C-42.6 320.5 -85.2 316.4 -124.2 299.8C-163.2 283.2 -198.6 253.9 -219.7 219.7C-240.7 185.4 -247.3 146.1 -262.4 108.7C-277.4 71.2 -301 35.6 -324.5 0L0 0Z" fill="#ffe0e5"></path><path d="M0 243.4C-31.9 240.3 -63.9 237.3 -93.1 224.8C-122.4 212.4 -149 190.4 -164.8 164.8C-180.5 139.1 -185.5 109.6 -196.8 81.5C-208.1 53.4 -225.7 26.7 -243.4 0L0 0Z" fill="#ffd3da"></path><path d="M0 162.2C-21.3 160.2 -42.6 158.2 -62.1 149.9C-81.6 141.6 -99.3 127 -109.8 109.8C-120.4 92.7 -123.7 73.1 -131.2 54.3C-138.7 35.6 -150.5 17.8 -162.2 0L0 0Z" fill="#ffc6d0"></path><path d="M0 81.1C-10.6 80.1 -21.3 79.1 -31 74.9C-40.8 70.8 -49.7 63.5 -54.9 54.9C-60.2 46.4 -61.8 36.5 -65.6 27.2C-69.4 17.8 -75.2 8.9 -81.1 0L0 0Z" fill="#ffc0cb"></path></g><g transform="translate(0, 600)"><path d="M0 -486.7C58.1 -469.8 116.3 -452.9 179.5 -433.3C242.7 -413.7 310.9 -391.5 344.2 -344.2C377.4 -296.9 375.6 -224.6 393.6 -163C411.5 -101.5 449.1 -50.7 486.7 0L0 0Z" fill="#fff9fa"></path><path d="M0 -405.6C48.4 -391.5 96.9 -377.4 149.6 -361.1C202.2 -344.8 259.1 -326.2 286.8 -286.8C314.5 -247.4 313 -187.1 328 -135.9C342.9 -84.6 374.3 -42.3 405.6 0L0 0Z" fill="#ffecef"></path><path d="M0 -324.5C38.8 -313.2 77.5 -301.9 119.7 -288.9C161.8 -275.8 207.3 -261 229.5 -229.5C251.6 -197.9 250.4 -149.7 262.4 -108.7C274.3 -67.7 299.4 -33.8 324.5 0L0 0Z" fill="#ffe0e5"></path><path d="M0 -243.4C29.1 -234.9 58.1 -226.4 89.7 -216.6C121.3 -206.9 155.5 -195.7 172.1 -172.1C188.7 -148.4 187.8 -112.3 196.8 -81.5C205.7 -50.7 224.6 -25.4 243.4 0L0 0Z" fill="#ffd3da"></path><path d="M0 -162.2C19.4 -156.6 38.8 -151 59.8 -144.4C80.9 -137.9 103.6 -130.5 114.7 -114.7C125.8 -99 125.2 -74.9 131.2 -54.3C137.2 -33.8 149.7 -16.9 162.2 0L0 0Z" fill="#ffc6d0"></path><path d="M0 -81.1C9.7 -78.3 19.4 -75.5 29.9 -72.2C40.4 -69 51.8 -65.2 57.4 -57.4C62.9 -49.5 62.6 -37.4 65.6 -27.2C68.6 -16.9 74.9 -8.5 81.1 0L0 0Z" fill="#ffc0cb"></path></g></svg>